<?xml version="1.0" standalone="no"?>
<!DOCTYPE svg PUBLIC "-//W3C//DTD SVG 20010904//EN"
 "http://www.w3.org/TR/2001/REC-SVG-20010904/DTD/svg10.dtd">
<svg version="1.0" xmlns="http://www.w3.org/2000/svg"
 width="299.000000pt" height="253.000000pt" viewBox="0 0 299.000000 253.000000"
 preserveAspectRatio="xMidYMid meet">

<g transform="translate(0.000000,253.000000) scale(0.100000,-0.100000)"
fill="#00bfff58" stroke="none">
<path d="M0 1265 l0 -1265 1495 0 1495 0 0 1265 0 1265 -1495 0 -1495 0 0
-1265z m2477 811 l28 -24 -19 -113 c-82 -509 -297 -1486 -342 -1554 -18 -28
-63 -46 -96 -38 -28 7 -94 53 -331 231 -154 114 -181 131 -195 120 -9 -7 -79
-69 -156 -136 -78 -68 -148 -128 -157 -133 -26 -13 -65 24 -83 79 -13 41 -82
259 -149 472 -11 36 -23 68 -26 72 -6 7 -88 37 -406 147 -88 30 -135 64 -135
96 0 31 49 66 150 106 58 23 209 81 335 129 127 48 352 133 500 190 815 312
993 378 1022 379 20 1 42 -8 60 -23z"/>
</g>
</svg>
